HIERARCHY
ROOT hip
{
OFFSET -0.10 89.68 -0.66
CHANNELS 6 Xposition Yposition Zposition Zrotation Xrotation Yrotation
JOINT abdomen
{
OFFSET 0 7.23 0
CHANNELS 6 Xposition Yposition Zposition Zrotation Xrotation Yrotation
JOINT chest
{
OFFSET 0 16.54 0
CHANNELS 6 Xposition Yposition Zposition Zrotation Xrotation Yrotation
JOINT neck
{
OFFSET 0 34.21 0
CHANNELS 6 Xposition Yposition Zposition Zrotation Xrotation Yrotation
JOINT head
{
OFFSET 0 6.29 0
CHANNELS 6 Xposition Yposition Zposition Zrotation Xrotation Yrotation
End Site
{
OFFSET 0 21.21 0
}
}
}
JOINT lCollar
{
OFFSET 4.06 26.61 -1.12
CHANNELS 6 Xposition Yposition Zposition Zrotation Xrotation Yrotation
JOINT lShldr
{
OFFSET 14.17 0 0
CHANNELS 6 Xposition Yposition Zposition Zrotation Xrotation Yrotation
JOINT lForeArm
{
OFFSET 26.12 0 0
CHANNELS 6 Xposition Yposition Zposition Zrotation Xrotation Yrotation
JOINT lHand
{
OFFSET 27.71 0 0
CHANNELS 6 Xposition Yposition Zposition Zrotation Xrotation Yrotation
JOINT lThumb1
{
OFFSET 2.29 -0.46 1.83
CHANNELS 6 Xposition Yposition Zposition Zrotation Xrotation Yrotation
JOINT lThumb2
{
OFFSET 5.29 0 0
CHANNELS 6 Xposition Yposition Zposition Zrotation Xrotation Yrotation
JOINT lThumb3
{
OFFSET 3.01 0 0
CHANNELS 6 Xposition Yposition Zposition Zrotation Xrotation Yrotation
End Site
{
OFFSET 2.62 0 0
}
}
}
}
JOINT lIndex1
{
OFFSET 9.37 0.29 2.59
CHANNELS 6 Xposition Yposition Zposition Zrotation Xrotation Yrotation
JOINT lIndex2
{
OFFSET 4.34 0 0
CHANNELS 6 Xposition Yposition Zposition Zrotation Xrotation Yrotation
JOINT lIndex3
{
OFFSET 2.16 0 0
CHANNELS 6 Xposition Yposition Zposition Zrotation Xrotation Yrotation
End Site
{
OFFSET 2.20 0 0
}
}
}
}
JOINT lMid1
{
OFFSET 9.47 0.83 0.29
CHANNELS 6 Xposition Yposition Zposition Zrotation Xrotation Yrotation
JOINT lMid2
{
OFFSET 4.77 0 0
CHANNELS 6 Xposition Yposition Zposition Zrotation Xrotation Yrotation
JOINT lMid3
{
OFFSET 2.87 0 0
CHANNELS 6 Xposition Yposition Zposition Zrotation Xrotation Yrotation
End Site
{
OFFSET 2.09 0 0
}
}
}
}
JOINT lRing1
{
OFFSET 8.65 1.01 -1.70
CHANNELS 6 Xposition Yposition Zposition Zrotation Xrotation Yrotation
JOINT lRing2
{
OFFSET 4.54 0 0
CHANNELS 6 Xposition Yposition Zposition Zrotation Xrotation Yrotation
JOINT lRing3
{
OFFSET 2.50 0 0
CHANNELS 6 Xposition Yposition Zposition Zrotation Xrotation Yrotation
End Site
{
OFFSET 2.20 0 0
}
}
}
}
JOINT lPinky1
{
OFFSET 7.69 0.66 -3.90
CHANNELS 6 Xposition Yposition Zposition Zrotation Xrotation Yrotation
JOINT lPinky2
{
OFFSET 3.21 0 0
CHANNELS 6 Xposition Yposition Zposition Zrotation Xrotation Yrotation
JOINT lPinky3
{
OFFSET 1.92 0 0
CHANNELS 6 Xposition Yposition Zposition Zrotation Xrotation Yrotation
End Site
{
OFFSET 1.78 0 0
}
}
}
}
}
}
}
}
JOINT rCollar
{
OFFSET -4.06 26.61 -1.12
CHANNELS 6 Xposition Yposition Zposition Zrotation Xrotation Yrotation
JOINT rShldr
{
OFFSET -14.17 0 0
CHANNELS 6 Xposition Yposition Zposition Zrotation Xrotation Yrotation
JOINT rForeArm
{
OFFSET -26.12 0 0
CHANNELS 6 Xposition Yposition Zposition Zrotation Xrotation Yrotation
JOINT rHand
{
OFFSET -27.71 0 0
CHANNELS 6 Xposition Yposition Zposition Zrotation Xrotation Yrotation
JOINT rThumb1
{
OFFSET -2.29 -0.46 1.83
CHANNELS 6 Xposition Yposition Zposition Zrotation Xrotation Yrotation
JOINT rThumb2
{
OFFSET -5.29 0 0
CHANNELS 6 Xposition Yposition Zposition Zrotation Xrotation Yrotation
JOINT rThumb3
{
OFFSET -3.01 0 0
CHANNELS 6 Xposition Yposition Zposition Zrotation Xrotation Yrotation
End Site
{
OFFSET -2.62 0 0
}
}
}
}
JOINT rIndex1
{
OFFSET -9.37 0.29 2.59
CHANNELS 6 Xposition Yposition Zposition Zrotation Xrotation Yrotation
JOINT rIndex2
{
OFFSET -4.34 0 0
CHANNELS 6 Xposition Yposition Zposition Zrotation Xrotation Yrotation
JOINT rIndex3
{
OFFSET -2.16 0 0
CHANNELS 6 Xposition Yposition Zposition Zrotation Xrotation Yrotation
End Site
{
OFFSET -2.20 0 0
}
}
}
}
JOINT rMid1
{
OFFSET -9.47 0.83 0.29
CHANNELS 6 Xposition Yposition Zposition Zrotation Xrotation Yrotation
JOINT rMid2
{
OFFSET -4.77 0 0
CHANNELS 6 Xposition Yposition Zposition Zrotation Xrotation Yrotation
JOINT rMid3
{
OFFSET -2.87 0 0
CHANNELS 6 Xposition Yposition Zposition Zrotation Xrotation Yrotation
End Site
{
OFFSET -2.09 0 0
}
}
}
}
JOINT rRing1
{
OFFSET -8.65 1.01 -1.70
CHANNELS 6 Xposition Yposition Zposition Zrotation Xrotation Yrotation
JOINT rRing2
{
OFFSET -4.54 0 0
CHANNELS 6 Xposition Yposition Zposition Zrotation Xrotation Yrotation
JOINT rRing3
{
OFFSET -2.50 0 0
CHANNELS 6 Xposition Yposition Zposition Zrotation Xrotation Yrotation
End Site
{
OFFSET -2.20 0 0
}
}
}
}
JOINT rPinky1
{
OFFSET -7.69 0.66 -3.90
CHANNELS 6 Xposition Yposition Zposition Zrotation Xrotation Yrotation
JOINT rPinky2
{
OFFSET -3.21 0 0
CHANNELS 6 Xposition Yposition Zposition Zrotation Xrotation Yrotation
JOINT rPinky3
{
OFFSET -1.92 0 0
CHANNELS 6 Xposition Yposition Zposition Zrotation Xrotation Yrotation
End Site
{
OFFSET -1.78 0 0
}
}
}
}
}
}
}
}
}
}
JOINT lThigh
{
OFFSET 8.73 -0 0
CHANNELS 6 Xposition Yposition Zposition Zrotation Xrotation Yrotation
JOINT lShin
{
OFFSET 0 -46.66 0
CHANNELS 6 Xposition Yposition Zposition Zrotation Xrotation Yrotation
JOINT lFoot
{
OFFSET 0 -40.14 0
CHANNELS 6 Xposition Yposition Zposition Zrotation Xrotation Yrotation
JOINT lToes
{
OFFSET 0 -8.88 14.22
CHANNELS 6 Xposition Yposition Zposition Zrotation Xrotation Yrotation
End Site
{
OFFSET 0 0 6.29
}
}
}
}
}
JOINT rThigh
{
OFFSET -8.73 0 -0
CHANNELS 6 Xposition Yposition Zposition Zrotation Xrotation Yrotation
JOINT rShin
{
OFFSET 0 -46.66 0
CHANNELS 6 Xposition Yposition Zposition Zrotation Xrotation Yrotation
JOINT rFoot
{
OFFSET 0 -40.14 0
CHANNELS 6 Xposition Yposition Zposition Zrotation Xrotation Yrotation
JOINT rToes
{
OFFSET 0 -8.88 14.22
CHANNELS 6 Xposition Yposition Zposition Zrotation Xrotation Yrotation
End Site
{
OFFSET 0 0 6.29
}
}
}
}
}
}
MOTION
Frames: 4
Frame Time: 0.03
-0.07 90.16 0.29 -3.48 -3.54 -43.19 0 7.23 0 -1.55 6.22 7.89 0 16.54 0 -4.07 14.08 16.18 0 34.21 0 0.79 29.24 -1.40 0 6.29 0 0.22 -30.18 20.57 4.06 26.61 -1.12 1.94 -3.12 5.86 14.17 0 0 -71.79 -0.28 -2.45 26.12 0 0 3.09 6.84 -49.98 27.71 0 0 6.57 11.77 -0.21 2.29 -0.46 1.83 61.71 75.20 -94.09 5.29 0 0 0.13 2.99 0.83 3.01 0 0 12.48 0 0 9.37 0.29 2.59 -3.96 -1.08 -8.55 4.34 0 0 -22.51 -0.41 2.27 2.16 0 0 -2.16 0 0 9.47 0.83 0.29 -9.56 -4.60 7.38 4.77 0 0 -23.50 -0.42 1.68 2.87 0 0 3.95 0.07 0.39 8.65 1.01 -1.70 -26.16 -2.98 12.92 4.54 0 0 -33.70 0.68 -1.57 2.50 0 0 6.76 0 -0 7.69 0.66 -3.90 -25.60 -15.51 17.30 3.21 0 0 -41.20 -0.02 3.92 1.92 0 0 4.41 0 0 -4.06 26.61 -1.12 1.24 -2.96 2.46 -14.17 0 0 65.29 -10.51 -22.27 -26.12 0 0 7.33 3.15 42.60 -27.71 0 0 18.63 3.63 7.69 -2.29 -0.46 1.83 -37.82 60.47 63.66 -5.29 0 0 19.65 1.35 -7.76 -3.01 0 0 -12.48 0 0 -9.37 0.29 2.59 -0.27 -2.50 0.70 -4.34 0 0 16.61 -0.16 -2.82 -2.16 0 0 2.16 0 0 -9.47 0.83 0.29 7.21 -5.19 -2.09 -4.77 0 0 36.41 -1.03 -2.80 -2.87 0 0 -3.95 0.07 -0.39 -8.65 1.01 -1.70 19.07 1.98 -7.76 -4.54 0 0 40.42 1.21 2.47 -2.50 0 0 -6.76 0 0 -7.69 0.66 -3.90 16.26 -9.18 -10.98 -3.21 0 0 44.61 0.64 -2.44 -1.92 0 0 -4.41 0 0 8.73 -0 0 14.27 -21.92 20.35 0 -46.66 0 7.18 38.17 -16.94 0 -40.14 0 -7.39 -10.39 7.27 0 -8.88 14.22 0 0 0 -8.73 0 -0 -14.98 1.56 -22.39 0 -46.66 0 -3.98 35.57 -8.23 0 -40.14 0 20.86 -22.31 -3.71 0 -8.88 14.22 0 0 0 
-0.07 90.14 0.27 -3.48 -3.54 -43.19 0 7.23 0 -1.56 6.25 7.89 0 16.54 0 -4.09 14.14 16.18 0 34.21 0 0.78 29.19 -1.40 0 6.29 0 0.25 -30.25 20.56 4.06 26.61 -1.12 1.74 -3.15 5.72 14.17 0 0 -71.67 -0.30 -2.45 26.12 0 0 3.09 6.84 -49.93 27.71 0 0 6.68 11.77 -0.25 2.29 -0.46 1.83 61.89 75.17 -94.30 5.29 0 0 0.16 2.98 0.85 3.01 0 0 12.48 0 0 9.37 0.29 2.59 -4.51 -1.00 -8.56 4.34 0 0 -23.41 -0.45 2.24 2.16 0 0 -2.16 0 0 9.47 0.83 0.29 -9.54 -4.59 7.42 4.77 0 0 -23.42 -0.42 1.68 2.87 0 0 3.95 0.07 0.39 8.65 1.01 -1.70 -26.13 -2.97 12.95 4.54 0 0 -33.67 0.68 -1.57 2.50 0 0 6.76 0 -0 7.69 0.66 -3.90 -25.56 -15.50 17.34 3.21 0 0 -41.16 -0.02 3.91 1.92 0 0 4.41 0 0 -4.06 26.61 -1.12 1.39 -2.95 2.54 -14.17 0 0 65.24 -10.53 -22.25 -26.12 0 0 7.30 3.06 42.64 -27.71 0 0 18.66 3.69 7.76 -2.29 -0.46 1.83 -37.85 60.43 63.69 -5.29 0 0 19.65 1.34 -7.73 -3.01 0 0 -12.48 0 0 -9.37 0.29 2.59 -0.19 -2.51 0.71 -4.34 0 0 16.62 -0.16 -2.82 -2.16 0 0 2.16 0 0 -9.47 0.83 0.29 7.20 -5.19 -2.09 -4.77 0 0 36.33 -1.03 -2.79 -2.87 0 0 -3.95 0.07 -0.39 -8.65 1.01 -1.70 19.04 1.99 -7.76 -4.54 0 0 40.38 1.21 2.46 -2.50 0 0 -6.76 0 0 -7.69 0.66 -3.90 16.26 -9.18 -10.97 -3.21 0 0 44.59 0.64 -2.44 -1.92 0 0 -4.41 0 0 8.73 -0 0 14.29 -21.97 20.36 0 -46.66 0 7.20 38.23 -16.96 0 -40.14 0 -7.40 -10.41 7.27 0 -8.88 14.22 0 0 -0 -8.73 0 -0 -14.99 1.50 -22.40 0 -46.66 0 -3.99 35.69 -8.21 0 -40.14 0 20.87 -22.38 -3.70 0 -8.88 14.22 0 0 0 
-0.07 90.11 0.24 -3.48 -3.54 -43.18 0 7.23 0 -1.58 6.29 7.89 0 16.54 0 -4.11 14.22 16.18 0 34.21 0 0.76 29.14 -1.40 0 6.29 0 0.24 -30.27 20.53 4.06 26.61 -1.12 1.52 -3.16 5.59 14.17 0 0 -71.55 -0.31 -2.47 26.12 0 0 3.09 6.83 -49.87 27.71 0 0 6.81 11.77 -0.30 2.29 -0.46 1.83 61.89 75.07 -94.32 5.29 0 0 0.14 2.97 0.85 3.01 0 0 12.48 0 0 9.37 0.29 2.59 -4.88 -0.94 -8.57 4.34 0 0 -24.04 -0.47 2.22 2.16 0 0 -2.16 0 0 9.47 0.83 0.29 -9.49 -4.58 7.46 4.77 0 0 -23.44 -0.42 1.68 2.87 0 0 3.95 0.07 0.39 8.65 1.01 -1.70 -26.09 -2.96 13.00 4.54 0 0 -33.64 0.68 -1.57 2.50 0 0 6.76 0 -0 7.69 0.66 -3.90 -25.51 -15.49 17.40 3.21 0 0 -41.13 -0.02 3.91 1.92 0 0 4.41 0 0 -4.06 26.61 -1.12 1.55 -2.94 2.61 -14.17 0 0 65.17 -10.55 -22.21 -26.12 0 0 7.26 2.97 42.68 -27.71 0 0 18.67 3.75 7.81 -2.29 -0.46 1.83 -37.81 60.36 63.61 -5.29 0 0 19.65 1.33 -7.68 -3.01 0 0 -12.48 0 0 -9.37 0.29 2.59 -0.18 -2.51 0.70 -4.34 0 0 16.63 -0.16 -2.83 -2.16 0 0 2.16 0 0 -9.47 0.83 0.29 7.20 -5.19 -2.08 -4.77 0 0 36.23 -1.02 -2.79 -2.87 0 0 -3.95 0.07 -0.39 -8.65 1.01 -1.70 19.00 1.99 -7.77 -4.54 0 0 40.34 1.21 2.46 -2.50 0 0 -6.76 0 0 -7.69 0.66 -3.90 16.28 -9.18 -10.97 -3.21 0 0 44.59 0.64 -2.44 -1.92 0 0 -4.41 0 0 8.73 -0 0 14.32 -22.02 20.37 0 -46.66 0 7.22 38.31 -17.00 0 -40.14 0 -7.41 -10.44 7.27 0 -8.88 14.22 0 0 -0 -8.73 0 -0 -15.01 1.43 -22.42 0 -46.66 0 -4.00 35.84 -8.19 0 -40.14 0 20.88 -22.46 -3.68 0 -8.88 14.22 0 0 0 
-0.07 90.09 0.21 -3.48 -3.54 -43.15 0 7.23 0 -1.59 6.33 7.88 0 16.54 0 -4.13 14.30 16.18 0 34.21 0 0.75 29.09 -1.40 0 6.29 0 0.19 -30.25 20.51 4.06 26.61 -1.12 1.32 -3.18 5.50 14.17 0 0 -71.46 -0.31 -2.53 26.12 0 0 3.09 6.81 -49.80 27.71 0 0 6.97 11.78 -0.34 2.29 -0.46 1.83 61.72 74.91 -94.12 5.29 0 0 0.11 2.95 0.86 3.01 0 0 12.48 0 0 9.37 0.29 2.59 -4.96 -0.91 -8.58 4.34 0 0 -24.26 -0.48 2.21 2.16 0 0 -2.16 0 0 9.47 0.83 0.29 -9.40 -4.57 7.51 4.77 0 0 -23.41 -0.42 1.68 2.87 0 0 3.95 0.07 0.39 8.65 1.01 -1.70 -26.03 -2.95 13.06 4.54 0 0 -33.61 0.68 -1.56 2.50 0 0 6.76 0 -0 7.69 0.66 -3.90 -25.45 -15.47 17.47 3.21 0 0 -41.09 -0.02 3.90 1.92 0 0 4.41 0 0 -4.06 26.61 -1.12 1.72 -2.93 2.68 -14.17 0 0 65.07 -10.58 -22.18 -26.12 0 0 7.22 2.84 42.71 -27.71 0 0 18.66 3.82 7.85 -2.29 -0.46 1.83 -37.81 60.35 63.61 -5.29 0 0 19.63 1.34 -7.67 -3.01 0 0 -12.48 0 0 -9.37 0.29 2.59 -0.20 -2.50 0.69 -4.34 0 0 16.64 -0.16 -2.83 -2.16 0 0 2.16 0 0 -9.47 0.83 0.29 7.20 -5.19 -2.07 -4.77 0 0 36.11 -1.02 -2.78 -2.87 0 0 -3.95 0.07 -0.39 -8.65 1.01 -1.70 18.94 2.00 -7.77 -4.54 0 0 40.28 1.21 2.46 -2.50 0 0 -6.76 0 0 -7.69 0.66 -3.90 16.30 -9.19 -10.98 -3.21 0 0 44.57 0.64 -2.44 -1.92 0 0 -4.41 0 0 8.73 -0 0 14.34 -22.07 20.39 0 -46.66 0 7.24 38.37 -17.06 0 -40.14 0 -7.41 -10.45 7.27 0 -8.88 14.22 0 0 0 -8.73 0 -0 -15.01 1.37 -22.43 0 -46.66 0 -4.01 35.99 -8.19 0 -40.14 0 20.89 -22.53 -3.66 0 -8.88 14.22 0 0 0 
